<svg id="Layer_1" data-name="Layer 1" xmlns="http://www.w3.org/2000/svg" viewBox="0 0 325.7 187.16"><defs><style>.cls-1{fill:#1a2935;}.cls-2{opacity:0.56;}.cls-3{opacity:0.51;}.cls-4{fill:#999965;}.cls-5{opacity:0.5;}.cls-6{fill:none;stroke:#000;stroke-miterlimit:10;stroke-width:10px;opacity:0.6;}</style></defs><path class="cls-1" d="M189,171.71" transform="translate(0 -0.42)"/><path class="cls-1" d="M157.76,172.72" transform="translate(0 -0.42)"/><path class="cls-1" d="M154.86,152.1" transform="translate(0 -0.42)"/><path class="cls-2" d="M179.71,55.81a7.3,7.3,0,0,1,2.34,3.75c1.2,3.82-.58,7.61-1.87,10.39-.29.61-.74,1.44-1.68,3.08-1.9,3.34-3.38,5.74-3.73,6.3a148.14,148.14,0,0,0-8.33,15.32,80.69,80.69,0,0,0-6.1,21.62,57.48,57.48,0,0,0-1.05,13.12,42.48,42.48,0,0,0,2.06,12.25,34,34,0,0,0,13.08,17.56,33.35,33.35,0,0,0,20,5.47A45.75,45.75,0,0,1,178.65,147c-3.44-6.93-4.1-12.93-4.66-17.93a67.83,67.83,0,0,1,2.61-27.17,92.55,92.55,0,0,1,4.3-10.82c3.87-8.74,5.81-13.11,8.56-17.63a28.21,28.21,0,0,0,3.19-6.85,25,25,0,0,0,1.08-6.4h0c0-2.87,0-6.93-1.25-10.51-.11-.31-2.14-5.74-6.86-8.64a18.91,18.91,0,0,0-3.77-1.71,11.69,11.69,0,0,0-4-.76,11,11,0,0,0-3.91.82,13.21,13.21,0,0,0-3,1.72,15,15,0,0,0-3.22,3.36c-1.43,1.86-2.53,3.29-3.15,4.12-2.36,1.16-4.29,2-5.63,2.6-1.1.48-2.18,1-3.29,1.44-2.77,1.12-3.5,1.16-3.64,1.72-.28,1.11,2.13,3,4.6,3.77.54.17,2.46.71,6.79-.21a32.71,32.71,0,0,0,8.06-2.85C171.78,54.91,176.44,53.18,179.71,55.81Z" transform="translate(0 -0.42)"/><path class="cls-3" d="M176.2,126.34C180.37,109.15,191,98.09,195.06,94c5-5.06,16-15.81,34.2-20.34,11-2.74,24.87-3.24,26.06-3.28,3.72-.12,5.51,0,15-.22,9.94-.2,14.91-.3,17.78-.58a64,64,0,0,0,23.82-7.21,121.83,121.83,0,0,1-25.14,46.14c-7.23,8.29-23.16,26.12-49.81,34.72-18,5.83-27.24,8.33-38.88,7.8,0,0-23.59-1.07-25.49,5.12h0A146.42,146.42,0,0,1,176.2,126.34Z" transform="translate(0 -0.42)"/><path class="cls-3" d="M186,133.42c9.74-14.41,22.87-21.75,27.82-24.45C226.5,102,240.5,98.7,250.51,99c6.27.19,17.62,2.08,21.09,2.82,1.27.27,2.51.56,2.51.56,3,.73,5.41,1.51,17.1,4.51,11.48,2.94,14.27,3.48,18.2,3.65A61.16,61.16,0,0,0,325.7,109a137,137,0,0,1-38.18,35.31c-9.19,5.69-29.29,17.82-55.31,19.07-15.38.74-24.69,1.19-36.25-2.44-7.24-2.27-19.36-7.4-22.9-3.21C172.45,158.41,169.51,157.78,186,133.42Z" transform="translate(0 -0.42)"/><path class="cls-3" d="M189.09,140.19c11.23-10,23.64-13.72,28.3-15.08,12-3.48,24.2-3.87,32.33-2a133.55,133.55,0,0,1,16.66,5.73c1,.42,1.93.86,1.93.86,2.31,1.08,4.09,2.1,13,6.42,8.74,4.25,10.9,5.14,14.08,5.92a52.19,52.19,0,0,0,13.71,1.38,127.77,127.77,0,0,1-39.24,22.11c-8.81,3.06-28,9.51-49.62,6.25-12.77-1.93-20.5-3.09-29.16-7.91-5.42-3-14.2-9.12-18-6.33C172.38,158.05,170.11,157.06,189.09,140.19Z" transform="translate(0 -0.42)"/><path d="M278,106" transform="translate(0 -0.42)"/><path class="cls-3" d="M174.22,148.22c3.77-28.35,25.44-47.85,25.44-47.85a72,72,0,0,1,35-17.34c6.61-1,19.08-1.37,22.95-1.31,1.42,0,2.81.07,2.81.07,3.39.13,6.15.46,19.35,1.17,12.95.7,16,.7,20.2.09a62.63,62.63,0,0,0,16.47-4.85,128.59,128.59,0,0,1-28.1,43.29c-18.57,18.77-37.44,26.07-50.62,31.17,0,0-22.56,8.73-39.41,3.77h0s-16.92-5.32-23.8-.19c-.15.12-1.62,1.26-1.89,1s.1-.61.16-.73C173.67,154.72,174.09,149.16,174.22,148.22Z" transform="translate(0 -0.42)"/><path class="cls-3" d="M167.54,131.37c-1-15.53,6-27.22,8.63-31.56a61.68,61.68,0,0,1,26.69-24.56c9.71-4.67,22.74-8,23.87-8.3,3.51-.88,5.23-1.18,14.22-3.35,9.4-2.27,14.1-3.4,16.76-4.24A61.36,61.36,0,0,0,278.3,48.18a93.38,93.38,0,0,1-10.64,44.66c-4.49,8.59-14.52,27.16-37.41,40.12-15.48,8.76-23.53,12.84-34.77,14.85,0,0-22.75,4.06-22.78,9.73h0A118.45,118.45,0,0,1,167.54,131.37Z" transform="translate(0 -0.42)"/><path class="cls-4" d="M167.93,23.09c.72,0,1.26.85,1.21,1.82a2.15,2.15,0,0,1-.2.82c1.68,1.92,4.22,4.36,5.92,3.84s3.34-8.2,4.13-13.14a1.75,1.75,0,0,1-.91-1.76c0-1,.67-1.73,1.38-1.69s1.27.85,1.22,1.82a1.69,1.69,0,0,1-1.14,1.67c.06,5.33.59,13.81,3.44,13.72s5.59-2.25,7-3.59a2.13,2.13,0,0,1-.24-1.12c0-1,.66-1.72,1.37-1.68s1.25.84,1.2,1.8-.66,1.72-1.37,1.69a1.15,1.15,0,0,1-.7-.33L184.7,37a13.23,13.23,0,0,0-5.95-1.8,12.12,12.12,0,0,0-6.07,1.36L168.4,26.41a1.06,1.06,0,0,1-.64.2c-.72,0-1.26-.85-1.22-1.82S167.21,23.05,167.93,23.09Z" transform="translate(0 -0.42)"/><g class="cls-5"><path d="M97.12,37.56l-10.73,102H56.31q-4.14-23.5-7.3-53.5-1.44,12.85-6.72,53.5H12.38L1.59,37.56H25l2.55,35.6L30,107.58q1.33-26.72,6.66-70h25Q62.2,42,64.33,71.22L67,110Q69,73,73.71,37.56Z" transform="translate(0 -0.42)"/><path d="M142.17,37.56V58l-17.95,61.19h17.95v20.42H97.75V124.78L116.3,58H99.93V37.56Z" transform="translate(0 -0.42)"/></g><path class="cls-4" d="M7.93,155.24l.14-.16V155a1.84,1.84,0,0,1,.11-.34,1.14,1.14,0,0,1,.22-.37.59.59,0,0,0,.14-.23.25.25,0,0,1,.21-.15.49.49,0,0,1-.07-.22l0-.26a.3.3,0,0,1,.07-.11l.07-.11.15-.14a.33.33,0,0,0,.11-.22.91.91,0,0,1,.16-.4c.11-.17.19-.25.24-.25a.24.24,0,0,0,.14,0s.07-.06.1-.06.09,0,.12.12.06.13.08.13.09-.05.09-.14,0-.08-.11-.1a.2.2,0,0,1-.14-.15l-.07-.18a.22.22,0,0,1,0-.1.45.45,0,0,1,.11-.25c.08-.09.14-.13.2-.13s.13,0,.19-.13a.23.23,0,0,1-.14-.19,2,2,0,0,0,.27-.48c.09-.22.19-.32.3-.32l.11.05a3.58,3.58,0,0,0,.13-.37l-.08-.27a1.24,1.24,0,0,1,.31-.42l.09-.09a1,1,0,0,1,.54-.64c.41-.51.66-.76.74-.76s.05,0,.1.09l.11,0c.05,0,.07,0,.07.1a2.86,2.86,0,0,0-.37.44h0a.75.75,0,0,0,.09-.09l.18-.19s0,.06,0,.06a.68.68,0,0,0,.13-.4s0-.05-.13-.11l0-.08a2,2,0,0,1,.41-.51,5.43,5.43,0,0,1,.9-.75L14,146a.14.14,0,0,1,.13-.07.53.53,0,0,1,.27.15l0,0a.91.91,0,0,1,0-.21.11.11,0,0,1,.09-.11.93.93,0,0,1,.49-.35,1.66,1.66,0,0,0,.52-.29l.24-.11a1.36,1.36,0,0,0,.32-.08.76.76,0,0,1,.32-.06l.18-.08a.5.5,0,0,1,.22-.09c.05,0,.13.06.25.17s0,0,.05,0l.15-.12h0c.11.12.23.23.35.34a1.31,1.31,0,0,1,.48,1l-.05.58,0,.47a.52.52,0,0,1-.19.41,3.19,3.19,0,0,1-.2.88,3.08,3.08,0,0,0-.21.73,3.45,3.45,0,0,1-.67,1.3,1.25,1.25,0,0,1-.14.24,3.91,3.91,0,0,0-.36.74,3,3,0,0,0-.41.65.6.6,0,0,1-.32.36h-.05l.05.31c-.3.56-.58.84-.87.84a.7.7,0,0,1-.51-.28.85.85,0,0,1-.26-.56c0-.45.44-1,1.31-1.63l.09,0,.1-.19a.81.81,0,0,1,0-.14q0-.2.36-.45c.11-.26.22-.41.34-.42l.46-.84,0-.13v-.21s.08-.12.24-.24l0-.06v-.28A.34.34,0,0,1,17,148a1.64,1.64,0,0,0,.1-.44,2.34,2.34,0,0,1,.19-.68,2.57,2.57,0,0,0-.13-.78.29.29,0,0,0-.27-.14,1.4,1.4,0,0,0-.55.23,1.4,1.4,0,0,1-.49.24.12.12,0,0,1-.09,0,.16.16,0,0,0-.1,0s-.07,0-.11.14a.3.3,0,0,1-.14.18.43.43,0,0,0-.2.14,1.28,1.28,0,0,1-.33.24l-.19.28-.19.17c0,.19-.12.28-.3.28s-.1.11-.2.33l-.09.11h-.18l0,.12v.14a.15.15,0,0,1-.08.14l-.44.56-.08.05H13l0,0c0,.33-.1.49-.24.5s-.11.28-.33.48l-.09.14h-.15l0,0a.34.34,0,0,1,.08.1.81.81,0,0,1-.14.31c-.08.15-.15.22-.2.2a1.61,1.61,0,0,1-.22.67l-.09.2a1,1,0,0,1-.14.22v.11c0,.24-.19.45-.56.64l.07.34a1.53,1.53,0,0,1-.19.33l-.1.26a.57.57,0,0,1-.16.3.57.57,0,0,1-.11.22.28.28,0,0,0-.08.15l0,.19a2.5,2.5,0,0,0-.21.53.81.81,0,0,1-.12.29,1.25,1.25,0,0,0-.12.31,1,1,0,0,1-.22.36c-.09.39-.14.6-.14.64l-.16.16a.89.89,0,0,1-.07.21l0,.11v.19c0,.12-.1.26-.29.42a.22.22,0,0,1,.14.22.9.9,0,0,1-.11.48,1.21,1.21,0,0,0-.15.33,3.45,3.45,0,0,1-.17.45.29.29,0,0,1,.13.23l-.11.91.08.26a.3.3,0,0,1-.15.08.53.53,0,0,0,.14.28,2.8,2.8,0,0,1,.36.68s.1,0,.2,0a.53.53,0,0,0,.2,0l.31-.07a1,1,0,0,0,.5-.25h.19a.38.38,0,0,0,.38-.24c.08-.16.15-.24.23-.24a.87.87,0,0,0,.33-.1h.07a.32.32,0,0,1,.09-.15,1.93,1.93,0,0,0,.19-.26c.1-.14.19-.21.26-.21a4.71,4.71,0,0,0,.63-.56s.05,0,.12,0a.19.19,0,0,0,.16-.14,4.05,4.05,0,0,1,.52-.57,2.17,2.17,0,0,0,.56-.72c.06-.17.13-.26.22-.26l.16,0h0s.06-.05.07-.13.17-.22.47-.43a.6.6,0,0,1,.36-.48l.41-.47.18,0c.05,0,.07-.12.08-.24a.27.27,0,0,1,.18-.26h.1l.07-.06c.05-.3.14-.45.26-.45h.09c.07,0,.1-.09.1-.26s.16-.29.49-.38l.23-.14a.14.14,0,0,1,.11,0c.2,0,.3.19.3.56a.29.29,0,0,1-.09.23l-.17.17,0,.23-.41.45a.37.37,0,0,0-.12.25c0,.11,0,.16-.07.16s-.07.08-.14.12a.26.26,0,0,0-.15.14.79.79,0,0,1-.51.55,1.37,1.37,0,0,1-.36.63.39.39,0,0,0-.2.21c0,.24-.13.35-.31.33a3,3,0,0,0-.54.76,0,0,0,0,1,0,0l-.16,0-.12.17a.35.35,0,0,1-.26.15c-.12,0-.19.09-.24.24a.81.81,0,0,1-.13.28.46.46,0,0,0-.12.18c0,.09-.1.13-.14.13s-.12-.08-.15-.23a.53.53,0,0,0-.19.2l.07.19a.13.13,0,0,1,0,.1,1.14,1.14,0,0,0-.17.27.74.74,0,0,1-.57.3s-.05.06-.09.19a.37.37,0,0,1-.33.21c-.16.28-.29.42-.4.42l-.5.19-.22,0c0,.12-.1.19-.16.19l-.16.05a.23.23,0,0,1-.19.14c-.11,0-.17,0-.17-.11a.16.16,0,0,1,0-.08v-.06s0-.08-.05-.08c0,.39-.09.59-.26.59a.94.94,0,0,1-.26-.11h0l-.22.13a.12.12,0,0,1-.09,0,1.44,1.44,0,0,1-.86-.31H8.61c-.24,0-.42-.17-.54-.49l0-.06a.43.43,0,0,1-.31-.42,2.07,2.07,0,0,0-.23-.29,1,1,0,0,0-.1-.35.5.5,0,0,1-.08-.18l-.27-1c0-.31,0-.55,0-.74l0-.11v-.08l0-.37,0-.14a6.26,6.26,0,0,1,.22-.8,10.22,10.22,0,0,0,.27-1,1.77,1.77,0,0,1,.1-.42Z" transform="translate(0 -0.42)"/><path class="cls-4" d="M19.56,156l.18-.06.07-.18a3.33,3.33,0,0,0,.81-.75.32.32,0,0,1,.1-.11.66.66,0,0,0,.17-.19,1.31,1.31,0,0,1,1-.5c.46,0,.7.33.73,1l.07.21a4.81,4.81,0,0,1,.26.78,4.3,4.3,0,0,1,.17.72,1.57,1.57,0,0,1-.19.74,4.7,4.7,0,0,0-.78,1l-.11.1a3.25,3.25,0,0,1-.25.49c-.15.06-.23.13-.23.2v.25a.22.22,0,0,1,0,.11,2.65,2.65,0,0,0-.14.31l-.1.17a.59.59,0,0,0-.09.22,1,1,0,0,1-.13.31.42.42,0,0,0-.09.22c0,.13.15.2.45.2l.18-.08.16,0,.11-.08a.78.78,0,0,1,.29-.15,1,1,0,0,0,.33-.16,1.45,1.45,0,0,1,.35-.19,1.33,1.33,0,0,0,.38-.27,1.32,1.32,0,0,1,.37-.26,1,1,0,0,0,.33-.26,3.59,3.59,0,0,1,.35-.32,5.74,5.74,0,0,0,.63-.65,1.17,1.17,0,0,1,.38-.29,2.14,2.14,0,0,0,.2-.36c.12-.24.25-.36.41-.36s.24.09.24.27a.44.44,0,0,1-.12.29v.08l0,.22a.29.29,0,0,1,0,.12A.29.29,0,0,1,26,159a1,1,0,0,0-.12.28.28.28,0,0,1-.22.23c0,.2-.1.31-.18.34a1.06,1.06,0,0,0-.3.27,5.65,5.65,0,0,1-.55.55,3.72,3.72,0,0,0-.49.48c-.09.12-.15.17-.18.17a.17.17,0,0,1-.1-.05s-.07-.06-.09-.06-.07.07-.09.2l-.05.13a.76.76,0,0,1-.17.11l-.07,0h0c-.1,0-.14,0-.14.13l.07.13v0a.17.17,0,0,1-.19.19,2.49,2.49,0,0,0-.74.51l-.33.08-.28.18a.46.46,0,0,0-.17-.1l-.18.07-.34,0-.42-.28a1.09,1.09,0,0,1-.49-.54,3.19,3.19,0,0,0-.21-.56,1.13,1.13,0,0,1-.12-.39,3.41,3.41,0,0,1,.09-.93,2.39,2.39,0,0,0,.11-.42.7.7,0,0,1,.14-.29,1.36,1.36,0,0,0,.17-.51,6.69,6.69,0,0,1,.47-1,1.27,1.27,0,0,0,.19-.44l.15-.24a.66.66,0,0,0,.07-.21c0-.13.07-.2.12-.22a.81.81,0,0,0,.09-.24c0-.27-.1-.4-.3-.4,0,0-.08.05-.13.15a.69.69,0,0,1-.32.27,1.5,1.5,0,0,0-.3.21.86.86,0,0,1-.25.17.92.92,0,0,0-.33.32l-.19.11c-.07.17-.12.27-.17.29l-.42.13a.66.66,0,0,0-.12.17.29.29,0,0,1-.26.15,2.34,2.34,0,0,0-.28.38.94.94,0,0,0-.24.11l-.23.07a1,1,0,0,0-.21.26.43.43,0,0,1-.41.17c-.11,0-.17-.11-.17-.32a1.61,1.61,0,0,1,1-1.49.24.24,0,0,0,.23-.17.41.41,0,0,1,.23-.22,1.25,1.25,0,0,0,.41-.4,1.23,1.23,0,0,1,.52-.41Z" transform="translate(0 -0.42)"/><path class="cls-4" d="M27.42,157.07l.25-.23a.32.32,0,0,0,.3-.34.72.72,0,0,1,.38-.55l.14-.23a2.87,2.87,0,0,1,.94-.53,1.12,1.12,0,0,0,.27-.25.05.05,0,0,1,0,0l.19.06a.93.93,0,0,0,.38-.1,1.29,1.29,0,0,1,.46-.09l.48,0a.58.58,0,0,1,.19.08.67.67,0,0,0,.35.08.61.61,0,0,1,.47.28.85.85,0,0,1,.21.5,1.36,1.36,0,0,1-.36.86c-.25.29-.44.46-.59.49a1.35,1.35,0,0,1-.3.3.72.72,0,0,0-.21.19c-.08.09-.14.13-.18.13a.07.07,0,0,1-.07,0,.09.09,0,0,0-.07,0c-.12,0-.26.18-.4.53l-.21,0a.68.68,0,0,0-.25.33.24.24,0,0,1-.25.18c-.28.34-.47.5-.57.5a.48.48,0,0,1-.16,0,.53.53,0,0,0-.1.29c0,.11-.06.17-.18.19l-.15.16-.11,0-.23.29a.61.61,0,0,0-.36.14c0,.11,0,.25-.07.41l0,.28c0,.27.21.4.61.4l.56-.1a.69.69,0,0,0,.41-.13.7.7,0,0,1,.41-.14l.21-.05.11.05a.87.87,0,0,1,.3-.37.65.65,0,0,1,.35-.16l.11-.08a.34.34,0,0,1,.14-.22l.09-.1a.26.26,0,0,1,.18-.11h.16l0,0c.1-.24.22-.38.39-.42a.41.41,0,0,0,.31-.2.29.29,0,0,1,.23-.16.42.42,0,0,0,.27-.19,1.45,1.45,0,0,1,.27-.29,2.79,2.79,0,0,0,.22-.2c.05,0,.08-.07.11-.07s.07,0,.07.12,0,.12.05.12,0,0,0-.05a.44.44,0,0,0,0-.14v-.09a.27.27,0,0,1,.19-.28l.52-.39c0-.19.06-.31.13-.34a.42.42,0,0,0,.17-.11.16.16,0,0,1,.12-.06q.15,0,.15.21l0,.35,0,.37a.39.39,0,0,1-.11.23,1,1,0,0,0-.16.43c0,.2-.09.31-.15.32H34a1,1,0,0,1-.33.31.35.35,0,0,0-.19.17l-.4.53-.19.25c-.06.07-.1.11-.13.11l-.09-.11s0,0,0,0-.12.06-.14.17a.7.7,0,0,1-.12.28,1.29,1.29,0,0,0-.45.36l-.07,0h-.21q-.15,0-.21.27a.37.37,0,0,1-.33.31.64.64,0,0,0-.38.16.27.27,0,0,1-.11.06,1.63,1.63,0,0,0-.32.22l-1,.4a.41.41,0,0,1-.15.07l-.32.06c-.05,0-.1,0-.14-.11s-.08-.11-.09-.11l-.21.08a1.21,1.21,0,0,1-.44.08.51.51,0,0,1-.26-.09l-.21-.14c-.23,0-.39-.2-.48-.61l-.14,0a4.8,4.8,0,0,1-.31-1,.36.36,0,0,0-.22-.15q-.15,0-.15-.27a1.11,1.11,0,0,1,.23-.82.82.82,0,0,0,.25-.33l.16-.7a.72.72,0,0,0,.11-.28l.27-.57C27.25,157.49,27.32,157.33,27.42,157.07Zm2.44-.82-.13.08-.27.24a2.92,2.92,0,0,1-.44.34,1.46,1.46,0,0,0-.44.68,3.41,3.41,0,0,0-.23.63.07.07,0,0,0,.07.08l.39-.21a1.53,1.53,0,0,0,.41-.31,5.25,5.25,0,0,1,.55-.46l.09-.11a.91.91,0,0,1,.22-.2,1.23,1.23,0,0,0,.28-.28l.12-.06a1,1,0,0,1,.39-.45c.14-.05.21-.1.21-.16s-.08-.16-.22-.16a.52.52,0,0,0-.28.13h-.27a.9.9,0,0,0-.25.17Z" transform="translate(0 -0.42)"/><path class="cls-4" d="M42.26,159.1l.18-.19a.19.19,0,0,0,.21-.18.42.42,0,0,1,.25-.29,1,1,0,0,0,.39-.45c.13-.22.25-.33.38-.33s.1,0,.16.13a.44.44,0,0,1,.1.22,2.2,2.2,0,0,1-.23.93l-.05.38-.08.18a.56.56,0,0,0-.23.23.85.85,0,0,1-.27.3l-.11.19a.57.57,0,0,0-.34.32c-.06.14-.14.23-.24.24a.59.59,0,0,0-.34.28l-.28.12,0,.14a.86.86,0,0,1-.37.22,1.74,1.74,0,0,0-.37.15.44.44,0,0,1-.16.08.84.84,0,0,1-.41-.11,1.05,1.05,0,0,0-.38-.12.48.48,0,0,1-.08-.18.86.86,0,0,0-.11-.26.74.74,0,0,1-.11-.43l0-.26a.24.24,0,0,0-.06-.13.27.27,0,0,1-.06-.14.11.11,0,0,1,0-.08.19.19,0,0,0,0-.08.77.77,0,0,0,0-.15.44.44,0,0,1,0-.14l.07-.67c0-.05,0-.08,0-.08s-.09.05-.17.14a.37.37,0,0,1-.28.13.57.57,0,0,0-.15.35,1.31,1.31,0,0,1-.23.24l-.05.08a.25.25,0,0,1-.17.16.39.39,0,0,0-.21.16l-.12.13-.22,0-.12.23a1,1,0,0,1-.27.35l-.88.85a4.41,4.41,0,0,1-.4.27l-.07.08a2.78,2.78,0,0,1-1.3.73,1.67,1.67,0,0,1-.73-.21.69.69,0,0,1-.45-.49l-.11-.56a1.1,1.1,0,0,1-.11-.53.54.54,0,0,1,0-.22v-.08l0-.45c0-.11.08-.16.22-.16l0-.37a2.18,2.18,0,0,1,.2-.43,1.87,1.87,0,0,1,.27-.43l.12-.18a.45.45,0,0,1,.16-.35,2.25,2.25,0,0,0,.28-.37,1.46,1.46,0,0,1,.39-.43l.34-.41a3.64,3.64,0,0,1,.88-.76,1.2,1.2,0,0,0,.28-.27,1.41,1.41,0,0,1,.49-.37,2.51,2.51,0,0,0,.53-.29.84.84,0,0,1,.41-.18h.09a4,4,0,0,0,.62-.34H39a.68.68,0,0,1,.21.11h0l.18-.11a.21.21,0,0,1,.12,0c.48,0,.74.4.78,1.18q0,.24.12.24c.08,0,.19-.16.33-.49a.86.86,0,0,1,.9-.5c.33,0,.5.25.5.75a2.55,2.55,0,0,1-.67,1.68,1.37,1.37,0,0,0-.07.24l-.16.56v0a.46.46,0,0,1-.1.23.47.47,0,0,0-.1.25l0,.34-.05.38a.52.52,0,0,0,.08.34.9.9,0,0,0,.54-.36,1,1,0,0,1,.23-.28l.12-.05A1.54,1.54,0,0,1,42.26,159.1Zm-3.83,0a.62.62,0,0,1,.28-.45.62.62,0,0,0,.28-.32,6.09,6.09,0,0,0,.63-.69c.28-.32.41-.52.41-.6a0,0,0,0,0,0,0h0l-.09.07-.21,0-.22,0-.16-.09-.15,0L38.9,157a.57.57,0,0,0-.32.09,1.78,1.78,0,0,1-.5.19,1.83,1.83,0,0,0-.68.38c-.2.18-.34.27-.44.27a1.83,1.83,0,0,1-.54.58.66.66,0,0,0-.36.48q-.3.28-.3.33l-.08.23a.79.79,0,0,1-.23.16c-.09,0-.14.13-.16.28a.77.77,0,0,1-.16.41.66.66,0,0,0-.13.3c0,.44.08.67.22.67A2.47,2.47,0,0,0,36,161a.47.47,0,0,1,.18-.1l.22-.14a.19.19,0,0,1,.11-.07.27.27,0,0,0,.11-.09.8.8,0,0,1,.21-.16.59.59,0,0,0,.23-.24l.63-.42.25-.22a.89.89,0,0,0,.31-.23A.59.59,0,0,1,38.43,159.1Z" transform="translate(0 -0.42)"/><path class="cls-4" d="M47,150.3l.16-.05.11-.14h0l.1,0h0a.88.88,0,0,0,.49-.13l.37-.18.18-.08,0,0,.19,0c.06,0,.14-.13.25-.39a1.51,1.51,0,0,1,.35-.57,1.86,1.86,0,0,0,.39-.67,1,1,0,0,0,.11-.21c0-.09.06-.14.09-.14s.21-.09.27-.26c.24-.32.42-.48.57-.48s.33.22.4.66l.12.52-.06.19a1.22,1.22,0,0,0,0,.37,1.49,1.49,0,0,1,0,.25.59.59,0,0,0,0,.14c0,.07.07.11.2.11a.73.73,0,0,0,.25-.11l.07,0a.35.35,0,0,0,.19.09l.33-.14.39-.15.28-.11h.14l.09,0s.09,0,.19-.12a1.12,1.12,0,0,1,.55-.14l.16-.08h0c.26,0,.38.13.38.4a.72.72,0,0,1-.1.28,1.64,1.64,0,0,0-.18.47l-.53.79c-.18.27-.36.41-.53.41s-.13-.13-.29-.37c0,0,0,0-.05,0a.53.53,0,0,0-.24.06.76.76,0,0,1-.21,0l-.61.21-.28.05-.22,0-.59.14a1.22,1.22,0,0,0-.47.67s0,.06-.11.12L49.41,153a.53.53,0,0,0-.34.36l0,.08a.4.4,0,0,0-.23.17,1.51,1.51,0,0,1-.19.22l-.21.37c-.09.13-.17.27-.26.42a2,2,0,0,0-.18.48,1.21,1.21,0,0,1-.09.29.21.21,0,0,0,0,.15l0,.11a.57.57,0,0,0-.14.37l.05.22c-.11.43-.17.67-.17.69a.9.9,0,0,0,0,.15v.09a2,2,0,0,1-.19.75l0,.21-.07.62a2.34,2.34,0,0,0,.07.45s0,.06,0,.08a1.4,1.4,0,0,0,.34.84,2.39,2.39,0,0,1,.34,1.43,1.52,1.52,0,0,1,0,.24,1.63,1.63,0,0,0,0,.34.62.62,0,0,1-.18.36.46.46,0,0,1-.28.18c-.41,0-.71-.35-.91-1a6.51,6.51,0,0,1-.31-1.36l0-.53-.07-.27.07-1.2,0-.29.27-1.17v-.43a.91.91,0,0,1,.16-.21s0,0,0,0-.11,0-.18.16a2.15,2.15,0,0,1-.29.32l-.09.19-.1-.06a4.2,4.2,0,0,0-.38.64.54.54,0,0,0-.38.33.43.43,0,0,1-.38.29l0,0c0,.26-.14.39-.32.39l-.05,0c-.11.31-.23.46-.35.45a.82.82,0,0,1-.57.56.48.48,0,0,1-.2.24.88.88,0,0,0-.19.15.16.16,0,0,1-.11.07c-.1,0-.15-.12-.15-.38a.52.52,0,0,1,.08-.24.42.42,0,0,0,.07-.18.58.58,0,0,0-.11-.17c0-.28.06-.46.18-.53a.7.7,0,0,0,.28-.31.35.35,0,0,1,.23-.23c.12-.05.17-.11.17-.18s.1-.19.3-.38a3.39,3.39,0,0,0,.44-.5c.09-.14.17-.21.23-.21l0-.06c0-.23.09-.34.22-.34l.11-.08,0-.11.07-.06h.09l.06,0a.65.65,0,0,1,.27-.53,7.26,7.26,0,0,0,.9-1.07,6,6,0,0,0,.74-1.13q.09-.24.3-.66a2.15,2.15,0,0,0,.24-.79l-.07-.11-.5.29s-.08-.07-.23-.12a.83.83,0,0,0-.25.24c-.06.09-.1.13-.13.13l-.16,0-.51.07a2.05,2.05,0,0,0-1,.32l-.47.17h-.1a.48.48,0,0,0-.28.14l-.27,0a1.22,1.22,0,0,1-.54.23l-.14,0-1.17.38a3.33,3.33,0,0,0-.63.56l-.09,0c-.08,0-.17-.1-.27-.31a1.26,1.26,0,0,1-.16-.55c0-.9.66-1.42,2-1.57l.47-.22h0l.13.06h0a.55.55,0,0,0,.22-.1,2.76,2.76,0,0,1,.67-.26l.48-.15.15,0a.5.5,0,0,0,.26-.11,1.11,1.11,0,0,1,.43-.16,1.4,1.4,0,0,0,.41-.1l.19-.05a.47.47,0,0,0,.19-.1.68.68,0,0,1,.37-.09A.53.53,0,0,1,47,150.3Z" transform="translate(0 -0.42)"/><path class="cls-4" d="M51.72,157.07l.24-.23a.32.32,0,0,0,.3-.34.74.74,0,0,1,.38-.55l.14-.23a2.87,2.87,0,0,1,.94-.53,1.12,1.12,0,0,0,.27-.25.05.05,0,0,1,0,0l.18.06a1,1,0,0,0,.39-.1,1.24,1.24,0,0,1,.45-.09l.48,0a.6.6,0,0,1,.2.08.63.63,0,0,0,.35.08.6.6,0,0,1,.46.28.81.81,0,0,1,.22.5,1.38,1.38,0,0,1-.37.86c-.25.29-.44.46-.59.49a1.35,1.35,0,0,1-.3.3.72.72,0,0,0-.21.19c-.07.09-.13.13-.18.13a.08.08,0,0,1-.07,0,.08.08,0,0,0-.07,0c-.12,0-.25.18-.4.53l-.21,0a.74.74,0,0,0-.25.33.24.24,0,0,1-.24.18c-.29.34-.48.5-.58.5a.56.56,0,0,1-.16,0,.52.52,0,0,0-.09.29c0,.11-.06.17-.19.19l-.15.16-.11,0-.23.29a.61.61,0,0,0-.36.14c0,.11,0,.25-.07.41s0,.27,0,.28c0,.27.2.4.61.4l.55-.1a.69.69,0,0,0,.41-.13.7.7,0,0,1,.41-.14.76.76,0,0,0,.21-.05l.11.05a1,1,0,0,1,.3-.37.68.68,0,0,1,.35-.16l.12-.08a.33.33,0,0,1,.13-.22l.1-.1a.26.26,0,0,1,.17-.11h.16l0,0a.6.6,0,0,1,.38-.42.46.46,0,0,0,.32-.2.27.27,0,0,1,.22-.16.39.39,0,0,0,.27-.19,1.45,1.45,0,0,1,.27-.29l.23-.2a.16.16,0,0,1,.11-.07s.07,0,.07.12,0,.12,0,.12,0,0,0-.05a.93.93,0,0,0,0-.14v-.09a.27.27,0,0,1,.18-.28l.52-.39c0-.19.06-.31.13-.34a.42.42,0,0,0,.17-.11.18.18,0,0,1,.13-.06q.15,0,.15.21l-.06.35.06.37a.46.46,0,0,1-.11.23,1,1,0,0,0-.17.43c0,.2-.09.31-.15.32H58.3a1,1,0,0,1-.33.31.39.39,0,0,0-.19.17l-.39.53-.2.25c0,.07-.1.11-.13.11l-.09-.11s0,0,0,0-.13.06-.15.17a.7.7,0,0,1-.12.28,1.29,1.29,0,0,0-.45.36l-.07,0h-.21q-.15,0-.21.27a.35.35,0,0,1-.32.31.68.68,0,0,0-.39.16l-.1.06a1.35,1.35,0,0,0-.33.22l-1,.4a.31.31,0,0,1-.15.07l-.32.06s-.09,0-.14-.11-.08-.11-.09-.11l-.21.08a1.17,1.17,0,0,1-.44.08.45.45,0,0,1-.25-.09,1.8,1.8,0,0,0-.22-.14c-.22,0-.38-.2-.47-.61l-.14,0a4.1,4.1,0,0,1-.31-1,.4.4,0,0,0-.22-.15q-.15,0-.15-.27a1.12,1.12,0,0,1,.22-.82.82.82,0,0,0,.25-.33l.16-.7a.86.86,0,0,0,.12-.28l.26-.57Zm2.44-.82-.14.08-.27.24a2.49,2.49,0,0,1-.44.34,1.54,1.54,0,0,0-.44.68,3,3,0,0,0-.22.63c0,.05,0,.08.07.08l.39-.21a1.92,1.92,0,0,0,.41-.31,4.37,4.37,0,0,1,.55-.46l.09-.11s.08-.1.21-.2a1.23,1.23,0,0,0,.28-.28l.12-.06a1,1,0,0,1,.4-.45c.13-.05.2-.1.2-.16s-.07-.16-.22-.16a.58.58,0,0,0-.28.13h-.26a.88.88,0,0,0-.26.17Z" transform="translate(0 -0.42)"/><path class="cls-4" d="M58.27,161.32l-.1-.7a1.13,1.13,0,0,1,.07-.26.17.17,0,0,0,.12-.05l-.07-.25a1.6,1.6,0,0,1,.22-.83,1.33,1.33,0,0,0,.25-.47c0-.08.13-.34.33-.8a5.5,5.5,0,0,1,.46-.86l.07-.18.09,0a3.2,3.2,0,0,1,.75-.91,1.76,1.76,0,0,1,.39-.49l.32-.28a.38.38,0,0,1,.24-.1l0,0c.23-.27.42-.4.58-.4a1.29,1.29,0,0,1,.32-.22h.13a.2.2,0,0,0,.14-.05.22.22,0,0,1,.14-.06.94.94,0,0,1,.24.11c.12-.14.22-.22.3-.22a.77.77,0,0,1,.49.22,1,1,0,0,1,.32.54,1.52,1.52,0,0,0,.11.37.45.45,0,0,1,.1.13c.06,0,.14-.17.24-.5l.14-.22a3,3,0,0,0,.43-1.12,1.05,1.05,0,0,0,.07-.23,5.34,5.34,0,0,1,.24-.67,4.38,4.38,0,0,0,.48-1.18l.14-.24a.35.35,0,0,0,.15-.24.61.61,0,0,1,.07-.24c0-.07.08-.16.13-.27a1.52,1.52,0,0,1,.12-.21,1.3,1.3,0,0,0,.14-.37c.06-.22.14-.34.22-.36a.9.9,0,0,0,.28-.16l0-.09,0-.19a1.28,1.28,0,0,1,.31-.58,5,5,0,0,0,.44-.67,9,9,0,0,1,.45-.82,3.77,3.77,0,0,1,.45-.68l.27-.32a.57.57,0,0,1,.52-.32.77.77,0,0,1,.53.32,1,1,0,0,1,.27.64,2.41,2.41,0,0,1-.12.5l0,.17a1.47,1.47,0,0,1-.12.52,1.58,1.58,0,0,0-.15.46l-.65,1.87-.14.08c-.2.52-.36.8-.47.85v.27a.23.23,0,0,1-.16.22l-.05,0a2.37,2.37,0,0,1-.26.75A1.61,1.61,0,0,0,68,153q-.08.24-.24.27c-.1,0-.16.19-.16.53,0,.18-.11.27-.23.27s-.19.12-.22.36a.42.42,0,0,1-.45.38.37.37,0,0,0-.14.19l.1.34a2.81,2.81,0,0,1-.43.64l-.09.36c-.15.06-.27.53-.36,1.4l-.14.94,0,.37,0,.19.14.56,0,.32c0,.14,0,.22.14.22s.15-.09.31-.25l.16-.08a2,2,0,0,0,.9-.85.71.71,0,0,1,.17-.11.34.34,0,0,0,.18-.15l.09-.13a3.35,3.35,0,0,0,.91-1,1,1,0,0,1,.42-.49l.1-.11a.39.39,0,0,1,.23-.14c.13,0,.19.05.19.14l-.09.38a2.77,2.77,0,0,1,.12.43.53.53,0,0,1-.36.58A1.52,1.52,0,0,0,69,159a.45.45,0,0,1-.37.29,1.27,1.27,0,0,1-.36.43c-.11.07-.16.14-.16.21V160a1,1,0,0,1-.16.22l-.22-.05a2.08,2.08,0,0,1-.21.45s-.07-.06-.1-.06-.2.08-.27.24-.12.23-.15.23h-.27a1.16,1.16,0,0,0-.18.17.53.53,0,0,1-.43.14l-.36.08a1.35,1.35,0,0,1-.93-.39,1.22,1.22,0,0,1-.46-.71,3.16,3.16,0,0,0-.19-.77l0-.56c-.08-.58-.18-.87-.29-.87l0,.18-.09,0c-.05.28-.13.42-.23.42a.64.64,0,0,0-.15.14l-.07.06s-.08.09-.14.23a1.82,1.82,0,0,1-.48.57q-.15.51-.24.51l-.14-.11h0c-.06,0-.11.1-.15.32s-.12.32-.23.32-.06.06-.09.18a.26.26,0,0,1-.2.23c-.11,0-.2.16-.29.38s-.14.33-.17.33l-.07,0-.2.06a2.67,2.67,0,0,0-.16.31.54.54,0,0,0-.18.11,1.22,1.22,0,0,1-1,.41,1,1,0,0,1-.66-.21,1,1,0,0,1-.29-.37,2.22,2.22,0,0,0-.17-.37A1.27,1.27,0,0,1,58.27,161.32Zm4.6-3.1L63,158a.49.49,0,0,0,.26-.41,4.59,4.59,0,0,0,.47-.71,3.35,3.35,0,0,0,.38-.7.32.32,0,0,0-.26-.13l-.14,0a.75.75,0,0,1-.24.08,1.12,1.12,0,0,0-.26.11l-.29-.05c-.08,0-.27.13-.56.39l-.27,0s-.12.12-.23.36l-.59.56h-.07c-.1,0-.18.11-.22.34a1.38,1.38,0,0,1-.36.41.62.62,0,0,0-.25.34v.17a14.85,14.85,0,0,1-.64,1.23,2.84,2.84,0,0,1-.18.54,2.48,2.48,0,0,1,.07.47c0,.18.1.28.23.28a1.07,1.07,0,0,0,.74-.48l.2-.15a3.17,3.17,0,0,0,.48-.49,3,3,0,0,1,.34-.37c.07-.09.12-.14.14-.14l.09-.11s0-.07.1-.12a1.91,1.91,0,0,0,.26-.28.8.8,0,0,1,.24-.25.3.3,0,0,0,.13-.12.36.36,0,0,1,.11-.14.22.22,0,0,0,.08-.15l0-.17Zm4-5.54-.12.39c.1,0,.19-.14.27-.37a4.85,4.85,0,0,1,.47-.72c.1,0,.17-.08.22-.23a1.2,1.2,0,0,1,.28-.44.87.87,0,0,1,.17-.37,3.11,3.11,0,0,0,.22-.39,1.68,1.68,0,0,1,.22-.3,2.06,2.06,0,0,0,.3-.66,1.55,1.55,0,0,1,.25-.56.51.51,0,0,0,.1-.38c0-.27,0-.4,0-.4s-.12.06-.16.16a1.66,1.66,0,0,1-.22.4l-.39.78a4.1,4.1,0,0,0-.31.74c0,.18-.11.29-.17.32a.68.68,0,0,0-.24.26l-.16.2a1.73,1.73,0,0,0-.09.39l-.11.11v.26a.41.41,0,0,1-.17.32c-.12.1-.17.16-.17.18Z" transform="translate(0 -0.42)"/><path class="cls-4" d="M78.56,162l-.08.19a.21.21,0,0,1-.23.15l-.38.16a1.49,1.49,0,0,1-.59.17l-.31,0a.93.93,0,0,1-.53-.19,1.46,1.46,0,0,1-.38-.33,3.19,3.19,0,0,1-.32-.9,4.87,4.87,0,0,1-.2-.91c0-.35.08-.54.24-.58a1,1,0,0,0-.11-.31,1.78,1.78,0,0,1-.11-.25,2.31,2.31,0,0,1,.31-1.31c-.09-.36-.14-.55-.14-.59a1.53,1.53,0,0,1,.06-.22,2.07,2.07,0,0,0,.08-.37,1.31,1.31,0,0,1,.07-.27l0-.23a.17.17,0,0,1,.18-.16s.07,0,.07-.11v-.11l0-.18a.8.8,0,0,1,.16-.55,1,1,0,0,0,.22-.51.81.81,0,0,1,.13-.42.57.57,0,0,0,.12-.28l.16-.38.13-.51a.22.22,0,0,1,.14-.19c.07,0,.11-.07.11-.12l0-.17.13-.41a.33.33,0,0,1,.2-.2,3.73,3.73,0,0,1,.29-.66,1.69,1.69,0,0,0,.19-.43.93.93,0,0,1,.34-.48s0-.13.1-.28.11-.23.19-.25.12-.06.12-.11l0-.11a1.09,1.09,0,0,1,.17-.4l.14-.3a.7.7,0,0,1,.23-.2,4.88,4.88,0,0,1,.42-.77,4.91,4.91,0,0,0,.44-.82,2.34,2.34,0,0,1,.49-.53l.38-.56c.1-.22.19-.34.28-.34a1.22,1.22,0,0,1,.54-.64,2.79,2.79,0,0,0,.33-.29.74.74,0,0,1,.48-.27c.12,0,.28.16.47.48a1.67,1.67,0,0,1,.29.8.56.56,0,0,1-.07.24,1,1,0,0,0-.09.33c0,.11,0,.43-.14,1a2.78,2.78,0,0,1-.22.9l-.31.71c0,.11-.07.18-.1.19a.42.42,0,0,0-.14.22l.06.29h0a2.17,2.17,0,0,0-.26.61c-.13.22-.23.43-.32.62a1.26,1.26,0,0,0-.13.39l-.07.19a4.32,4.32,0,0,0-.34.73.72.72,0,0,0-.17.3.67.67,0,0,1-.17.28.42.42,0,0,0-.13.3.64.64,0,0,1-.07.26l-.23,0v0l0,.4s0,.08-.11.12a.67.67,0,0,0-.19.3.34.34,0,0,1-.28.25.31.31,0,0,0-.13.16l0,.26-.17.29a1.63,1.63,0,0,1-.19.27l-.25,0s-.07.18-.07.48a.41.41,0,0,1-.23.41c-.4.73-.63,1.13-.69,1.21a.67.67,0,0,1-.38.19s0,0,0,0-.24-.13-.49-.4h0a3.15,3.15,0,0,1-.24.9.4.4,0,0,0-.09.25l.12.25v0a4.63,4.63,0,0,1-.12.94v.08l0,.29v.5l0,.3a.82.82,0,0,1,.09.34c0,.3.06.44.18.44s.16-.09.29-.27l.14-.08a1.15,1.15,0,0,0,.4-.49,1.68,1.68,0,0,0,.19-.66c0-.19-.16-.29-.48-.29-.15,0-.23-.23-.23-.58a.64.64,0,0,1,.18-.45,3.91,3.91,0,0,0,.3-.41c.18-.34.38-.51.58-.51l.59-.24a.37.37,0,0,1,.18,0l.23.09.38-.16c.27,0,.45.16.54.49q0,.09.18.09a.87.87,0,0,0,.68-.29,2.9,2.9,0,0,1,.58-.48,2.25,2.25,0,0,0,.49-.38c.13-.13.21-.2.24-.2H83s.06-.06.14-.17a.47.47,0,0,1,.43-.18.1.1,0,0,1,.11.11c0,.48-.06.76-.18.85a2.06,2.06,0,0,0-.43.59l-.13.09a1.89,1.89,0,0,0-.2.27.44.44,0,0,1-.19.18c-.18.32-.31.47-.4.47A.29.29,0,0,1,82,159c-.06,0-.09-.07-.11-.07s-.08.11-.11.33a2.48,2.48,0,0,1-.38.39s-.09-.05-.16-.16a0,0,0,0,0,0,0c-.12,0-.2.08-.22.25a.3.3,0,0,1-.26.27l-.46.1-.27,0c-.06,0-.19.22-.4.67a2.92,2.92,0,0,1-.37.69.82.82,0,0,0-.5.51Zm3.94-15.66v-.16c-.18.05-.31.25-.38.59l-.1.1a1.15,1.15,0,0,0-.34.46,5,5,0,0,1-.42.72l0,.16-.27.4,0,.26-.18.18a.56.56,0,0,0-.2.33,1.54,1.54,0,0,1-.25.5l-.28.4a3.85,3.85,0,0,0-.27.73l-.07.14a.23.23,0,0,1-.12.2l-.42.62s0,.16-.05.39a.27.27,0,0,0-.22.17l-.18.5a.59.59,0,0,1-.12.19,2.15,2.15,0,0,1-.42,1l-.27.64a1.33,1.33,0,0,0-.07.3l0,.08a1.2,1.2,0,0,0-.14.48s0,.15,0,.34h0s0,0,.09-.07a1.81,1.81,0,0,1,.19-.15.76.76,0,0,0,.18-.34.6.6,0,0,1,.23-.35.55.55,0,0,0,.2-.21l.69-1.09a1.65,1.65,0,0,1,.19-.25.42.42,0,0,0,.12-.23l.09-.19a3,3,0,0,0,.24-.3,2.4,2.4,0,0,1,.26-.3.33.33,0,0,0,.1-.26.83.83,0,0,1,.13-.37l0-.11a2.74,2.74,0,0,1,.2-.26.28.28,0,0,0,.1-.17c0-.07.09-.19.26-.36a2.36,2.36,0,0,1,.27-.66,5.79,5.79,0,0,0,.38-.83,1.74,1.74,0,0,1,.24-.51.83.83,0,0,0,.16-.51l.12-.22.35-1.17,0-.29Z" transform="translate(0 -0.42)"/><path class="cls-4" d="M90.34,159.32v.15l0,.11v.06s0,.12,0,.31a1.09,1.09,0,0,0-.2.62l-.14.24a.37.37,0,0,1-.11.3,1.08,1.08,0,0,0-.19.44c-.05.22-.12.45-.19.69l-.27.78s0,.06,0,.06l.07,0,.1,0a.16.16,0,0,1,.09,0l.07,0a1,1,0,0,0,.17-.1.93.93,0,0,1,.33-.12l.43-.12a1.67,1.67,0,0,1,.56-.06l.36,0a1.68,1.68,0,0,1,.86.26,1.3,1.3,0,0,1,.55.55,2.91,2.91,0,0,1,.11.93c0,.33-.1.5-.29.5a.71.71,0,0,1-.45-.26,1.36,1.36,0,0,1-.37-.65c-.07-.27-.18-.4-.34-.4l-.29-.11-.16.06h0a.84.84,0,0,1-.21-.08h0l-.34.1H90l-.22.14a1.64,1.64,0,0,1-.35.08,1.13,1.13,0,0,0-.34.11q-.15.09-.15.15a1,1,0,0,1-.31.73,1,1,0,0,0-.13.34.57.57,0,0,1-.13.29,2.12,2.12,0,0,0-.26.49l-.09.19a.31.31,0,0,0,0,.13.89.89,0,0,0,0,.11v.13a1,1,0,0,1-.38.72v.13a.58.58,0,0,1-.18.32l0,.27a.6.6,0,0,1-.12.23,1.57,1.57,0,0,0-.22.38.78.78,0,0,1-.33.38V169l.07.16s0,0,0,0-.06.16-.17.29a1.28,1.28,0,0,1-.17.42l-.47.76a.55.55,0,0,0-.11.3l-.09.26a.66.66,0,0,0-.17.25,4.84,4.84,0,0,1-.31.51c-.17.25-.28.38-.34.38a.75.75,0,0,1,.07.19.72.72,0,0,1-.18.4q-.3,0-.3.15l.06.27s0,.09-.13.17a.39.39,0,0,1-.21.11h-.16l0,.24a.37.37,0,0,1-.14.21,1.31,1.31,0,0,0-.31.32,2,2,0,0,1-.3.32l-.15.11-.45.05a3.68,3.68,0,0,1-.71-.45,1.35,1.35,0,0,1-.6-.72,4.52,4.52,0,0,1-.08-.95.54.54,0,0,1,.12-.23l0-.11v-.26s0-.18.11-.48a1.33,1.33,0,0,1,.2-.51,1.56,1.56,0,0,0,.26-.53,3.94,3.94,0,0,1,.26-.65l1.06-1.84a.39.39,0,0,1,0-.23h.07a.14.14,0,0,0,.13-.08.82.82,0,0,1,.1-.17.53.53,0,0,1,.2-.42,1,1,0,0,0,.29-.36,3.07,3.07,0,0,1,.2-.36l0-.08a.7.7,0,0,1,.21-.13.35.35,0,0,0,.18-.22l.39-.45.18-.13a1,1,0,0,0,.27-.3l.08,0H86l0,0c.09-.24.18-.37.28-.38a.34.34,0,0,0,.19-.09.36.36,0,0,1,.4-.42.18.18,0,0,0,.14-.05l.28-.26a2.47,2.47,0,0,0,.22-.53v0l.21.07,0-.07-.05-.3a2,2,0,0,0,.14-.38c.07-.21.14-.34.2-.37s.09-.08.09-.13V162l0-.16,0-.11v-.18l0-.05a2.06,2.06,0,0,0,.13-.51l.13-.11.52-1.73a2.44,2.44,0,0,0,.07-.36l.09-.15a2.8,2.8,0,0,0,.14-.56,0,0,0,0,0,0-.05s-.1.05-.2.15-.19.16-.25.16l-.18,0h0a.33.33,0,0,0-.19.13.76.76,0,0,1-.14.14l-.14,0c-.08.15-.15.24-.21.26l-.29.21h0l-.16-.13s0,0-.06,0-.08.11-.14.33l-.36.2-.13,0c-.08,0-.15.08-.22.25a.41.41,0,0,1-.28.28.75.75,0,0,1-.43.19l-.68.56a.32.32,0,0,0-.16.14.65.65,0,0,0-.45.31l-.31,0c-.08,0-.16.06-.23.18s-.15.18-.23.18h-.06l-.14,0-.38.11a1,1,0,0,1-.5-.29c-.22-.2-.34-.37-.34-.52l-.07-.61a.65.65,0,0,1,.1-.19.63.63,0,0,0,.09-.23.89.89,0,0,0,0-.11v-.11a3,3,0,0,1,.28-1.15v0s0-.06-.07-.06-.18.1-.25.3a1,1,0,0,1-.24.41,1.24,1.24,0,0,0-.2.21c0,.05-.08.08-.11.08a.3.3,0,0,0-.16-.08l-.08-.17a.46.46,0,0,0-.17-.22.36.36,0,0,1-.12-.31c0-.1.11-.23.33-.4l.14-.16c.35-.42.59-.64.71-.67l.07-.19c.11-.1.24-.24.4-.42a1.86,1.86,0,0,1,.41-.37l.63-.64a1,1,0,0,1,.76-.3c.24,0,.37.18.37.56a1.82,1.82,0,0,1-.17.86,2.07,2.07,0,0,0-.21.56,1.92,1.92,0,0,1-.3.67,2.74,2.74,0,0,0-.33.62,3.26,3.26,0,0,1-.23.54,1.38,1.38,0,0,0-.18.62c0,.1,0,.14.14.14a.84.84,0,0,0,.49-.25l.11,0a2,2,0,0,0,.23-.14l.29-.15a.48.48,0,0,1,.25-.27l.22-.14.4-.21a.66.66,0,0,0,.3-.25.7.7,0,0,1,.18-.2,1.1,1.1,0,0,0,.25-.24c.2,0,.48-.2.83-.61.36-.25.69-.49,1-.73a5.6,5.6,0,0,0,.62-.53l.24-.15a1.83,1.83,0,0,0,.41-.3.77.77,0,0,1,.57-.22.84.84,0,0,1,.58.27.76.76,0,0,1,.27.53l0,.65a1.94,1.94,0,0,1-.29,1.07,2.88,2.88,0,0,1-.16.75l0,.31S90.51,159.2,90.34,159.32Zm-5.46,10.46.05-.19a.35.35,0,0,1,.16-.19,1.51,1.51,0,0,1,.32-.77,1.12,1.12,0,0,1,0-.34l.16-.18.45-.9.15-.36a2.26,2.26,0,0,0,.13-.33,1.77,1.77,0,0,1,.38-.75v-.1c0-.13,0-.19-.07-.19a.77.77,0,0,1-.23.19l-.74.74a3.52,3.52,0,0,0-.31.43l-.22.28a1.55,1.55,0,0,1-.28.29.85.85,0,0,0-.24.4c-.1.22-.18.33-.25.33h0a.32.32,0,0,1-.11-.07.14.14,0,0,0-.07.13l.07.32a.28.28,0,0,1-.1.17A1.35,1.35,0,0,0,84,169a.32.32,0,0,1-.13.16s-.14.19-.26.51l-.22.13a2.17,2.17,0,0,1-.42,1.3,1.84,1.84,0,0,0-.15.43.74.74,0,0,1-.11.26c0,.34-.12.54-.24.59a.1.1,0,0,0,0,.08c0,.06,0,.11.11.17l0,0a3.32,3.32,0,0,0-.15.79s0,.06,0,.06l.35-.21a1,1,0,0,0,.49-.52l.19-.42a.24.24,0,0,1,.16-.11.54.54,0,0,1,.22-.37.23.23,0,0,0,.16-.21,3.79,3.79,0,0,1,.43-.95A8.78,8.78,0,0,0,84.88,169.78Z" transform="translate(0 -0.42)"/><path class="cls-4" d="M101,157.74h.11l-.06-.18H101c-.06,0-.09,0-.09-.13a.9.9,0,0,1,.19-.48v-.14a1.82,1.82,0,0,1,.44-.8l.18,0,0-.28.07-.19a2.23,2.23,0,0,0,.09-.32l.14,0,0-.16v-.14c0-.21.08-.32.24-.34a1.16,1.16,0,0,1,0-.22.35.35,0,0,1,.09-.19l.08-.17a1.17,1.17,0,0,1,.2-.33,1,1,0,0,0,.2-.36,1.8,1.8,0,0,1,.16-.34l0-.12a2.78,2.78,0,0,1,.4-.61l.38-.48s.11-.13.17-.32.14-.3.24-.3h0s0,.06.07.06,0,0,0,0l0-.22c.15-.18.23-.3.23-.37s.19-.37.58-.67c0,0,.08-.07.12-.17a1.32,1.32,0,0,1,.37-.44l.1-.11a2.72,2.72,0,0,1,.3-.27.88.88,0,0,1,.69-.62l.07-.06c0-.19.13-.29.29-.3a1,1,0,0,1,.77-.48.5.5,0,0,1,0-.17c0-.11,0-.17.16-.17l.17.06a.8.8,0,0,1,.29-.39,1,1,0,0,0,.22-.15.42.42,0,0,1,.15-.11s.06,0,.15-.06a.61.61,0,0,0,.32-.24.83.83,0,0,0,.24-.14h.07l0,0c.16-.17.29-.26.4-.26l.32-.14a.42.42,0,0,1,.15,0l.1.05a1,1,0,0,0,.23-.11h0a.85.85,0,0,0,.44.12c.18,0,.31.16.37.46l.14.35a.63.63,0,0,1,.07.27.86.86,0,0,0,.06.37.4.4,0,0,1,.07.16.79.79,0,0,1-.07.23.9.9,0,0,0-.06.36.84.84,0,0,1-.09.28l-.1.25c-.2.84-.4,1.26-.58,1.26-.45,0-.67-.17-.67-.51a1.85,1.85,0,0,1,.67-1.2,1.52,1.52,0,0,0,.2-.36,1.28,1.28,0,0,0,.14-.39c0-.17-.07-.26-.21-.26a.47.47,0,0,0-.32.12.83.83,0,0,1-.35.14.53.53,0,0,0-.27.08l-.19.11a6.26,6.26,0,0,0-.69.5L106.27,151l0,.22a1,1,0,0,1-.19.16.72.72,0,0,0-.24.4,2.36,2.36,0,0,1-.49.73l-.41.65-.09.24a5.49,5.49,0,0,0-.83,1.15,1.34,1.34,0,0,1-.39.42s0,0,0,0l0,.22v.05a7.36,7.36,0,0,1-.76,1.43l0,.06a2.36,2.36,0,0,1-.22.79,2.55,2.55,0,0,0-.18.44,1,1,0,0,1-.12.32,1.81,1.81,0,0,0-.17.41,2.26,2.26,0,0,1-.14.37.52.52,0,0,0-.08.26,1.47,1.47,0,0,1-.15.4c0,.17.07.27.07.29s-.07.35-.19.94V161a.79.79,0,0,0,.09.34c.06.13.12.2.16.2a2,2,0,0,0,.6-.36,2.61,2.61,0,0,0,.73-.71l.28-.16.17-.19a1.5,1.5,0,0,0,.3-.06,1.47,1.47,0,0,1,.36-.67h.22a.54.54,0,0,0,.11-.37,1.67,1.67,0,0,1,.33-.49c.22-.27.38-.49.5-.64a1.7,1.7,0,0,1,.21-.26,1.76,1.76,0,0,1,.33-.5,1.49,1.49,0,0,0,.35-.54c.06-.17.15-.26.26-.26s.17,0,.17-.08a.7.7,0,0,1,.07-.22l0-.11a1.91,1.91,0,0,1,.36-.47l.09-.14a.77.77,0,0,1,.17-.29l.14-.16a.48.48,0,0,1,.15-.31,2.21,2.21,0,0,0,.28-.47,3,3,0,0,1,.34-.57,1.47,1.47,0,0,0,.45-.76,1.69,1.69,0,0,1,.45-.8l.29-.56a.57.57,0,0,1,.49-.31c.16,0,.37.2.62.59a2.16,2.16,0,0,1,.37,1.14l-.1.55a2.53,2.53,0,0,1-.27,1,1.49,1.49,0,0,0-.2.48,1.15,1.15,0,0,1-.19.46,2.17,2.17,0,0,0-.27.77l-.34.75-.09.32c-.09.34-.13.55-.14.61a.56.56,0,0,1,0,.12l-.06.11a.35.35,0,0,0-.07.15l0,.1h0a2.27,2.27,0,0,0-.14.36c0,.1,0,.14.07.14s.13-.05.21-.16a.84.84,0,0,1,.24-.23.31.31,0,0,0,.15-.19.52.52,0,0,1,.23-.25.72.72,0,0,1,.23-.14h.1a1.43,1.43,0,0,0,.4-.38,1.55,1.55,0,0,1,.37-.25l.35-.19a1.79,1.79,0,0,0,.59-.5l.13,0a.75.75,0,0,1,.25-.11s.07.09.07.28a.3.3,0,0,1-.16.26.83.83,0,0,0-.18.15l0,.1v.05a1,1,0,0,1-.18.51.62.62,0,0,1-.38.36.39.39,0,0,0-.29.25.54.54,0,0,1-.12.22.73.73,0,0,0-.16-.08h0q-.09,0-.21.15a2.33,2.33,0,0,1-.44.38l-.18.19a.21.21,0,0,1-.16.11,6.46,6.46,0,0,0-.69.59,1.52,1.52,0,0,0-.78.67l-.21.42a2.86,2.86,0,0,1-.16.31l-.19.84a1.76,1.76,0,0,1-.24.42v0l0,.3a1.55,1.55,0,0,1-.17.29,3,3,0,0,0-.32.92l-.21.84-.11.21a1.41,1.41,0,0,0-.22.37,1,1,0,0,1-.31.7l-.21.59-.14.55-.22.32,0,.22-.19.3a1.94,1.94,0,0,0-.22.52,1.31,1.31,0,0,1-.31.58.65.65,0,0,0-.22.39,3.92,3.92,0,0,1-.39.66,3.37,3.37,0,0,0-.44.82.29.29,0,0,1-.29.25,1.19,1.19,0,0,0,0,.24.3.3,0,0,1-.18.25.37.37,0,0,0-.23.24.29.29,0,0,1-.28.2c-.15,0-.25,0-.29.12s-.09.12-.15.12a.84.84,0,0,1-.88-.78.51.51,0,0,0-.11-.25.48.48,0,0,1-.09-.26,1.64,1.64,0,0,0-.13-.44v0l0-.16s0,0,0-.06l-.07-.28a2.09,2.09,0,0,0,.11-.51l0-.33a3.78,3.78,0,0,1,.41-1.35,5.57,5.57,0,0,0,.51-1.47,2.43,2.43,0,0,1,.2-.29l.23-.49.09-.12a.52.52,0,0,1,0-.14c0-.11.08-.22.23-.33a.94.94,0,0,0,.27-.28l.15-.22.14-.29c0-.25.12-.38.27-.38l.08,0a.43.43,0,0,0,.07-.23v-.06l0-.14a1.59,1.59,0,0,1,.21-.3l.43-.5.11-.23.72-.73a3.53,3.53,0,0,0,.2-.31l1.09-1.28.09-.06c.07,0,.11-.06.11-.08a1.41,1.41,0,0,1,.14-.58,2.27,2.27,0,0,0,.22-.54v-.16a1,1,0,0,0,.11-.21l.11-.11a.41.41,0,0,1,.1-.22l0-.28a2,2,0,0,0,.27-.48,1.89,1.89,0,0,1,.23-.7v-.11a.67.67,0,0,1,.23-.5s.06-.09.12-.27l.08-.29,0-.16a2,2,0,0,1-.67.72,5.79,5.79,0,0,0-.72,1c-.06.12-.11.18-.14.18h-.15s-.09,0-.16.13-.12.14-.12.18l.07.27-.14.21,0,0-.13,0,0,.08,0,.19a.81.81,0,0,0,0,.1,1.65,1.65,0,0,1-.34.3c-.1.22-.19.35-.28.37a.16.16,0,0,0-.12.16.71.71,0,0,1-.41.59s-.06.06-.1.12a3.1,3.1,0,0,1-.19.26l-.07.15-.07,0-.13,0s-.09.14-.15.36l-.05.05-.14,0a.81.81,0,0,0-.09.26l-.78.91-.52.21a1.67,1.67,0,0,1-.53.11.66.66,0,0,1-.56-.25s0,0,0,0l-.29,0c-.06,0-.18-.1-.37-.31l-.22-.14-.29-.42a1.36,1.36,0,0,1-.3-.56l0-.48,0-.24,0-.56a1.17,1.17,0,0,1,.09-.39,1.63,1.63,0,0,0,.1-.34.42.42,0,0,1,.1-.2l0-.19a.4.4,0,0,1,.08-.26.64.64,0,0,0,.13-.17l0,0,.18,0-.07-.22S101,157.74,101,157.74Zm1.4,12-.07.17.07.33,0,.59c0,.21,0,.31.12.31a1.7,1.7,0,0,0,.55-.58,4.13,4.13,0,0,1,.3-.45,1.85,1.85,0,0,0,.21-.46c.09-.23.14-.35.17-.35h.12q.09,0,.09-.39s0-.2.11-.5.15-.46.23-.49a1.09,1.09,0,0,0,0-.22l.16-.24a2.14,2.14,0,0,0,.13-.29l.07-.34c.15-.55.34-.86.56-.94a.14.14,0,0,0,0-.12l.1-.41c.07-.37.2-.59.4-.67v0a.67.67,0,0,0,0-.18v-.08a.41.41,0,0,1,.06-.19,1.65,1.65,0,0,0,.11-.32,1.23,1.23,0,0,1,.24-.47v-.17a.42.42,0,0,1,.19-.41.37.37,0,0,0,.19-.31l-.06-.31,0,0a.5.5,0,0,1-.29.44.94.94,0,0,0-.38.35.37.37,0,0,1-.23.21c-.1,0-.16.18-.18.46,0,.06-.14.12-.34.2a.49.49,0,0,0-.33.47c0,.25-.08.39-.16.43l-.28.05a.37.37,0,0,0-.14.22,6.57,6.57,0,0,1-.42.76l-.18.5-.11.15a3.28,3.28,0,0,0-.3,1l-.2.39a.57.57,0,0,0-.16.37,2.4,2.4,0,0,1-.22.67v.22a1,1,0,0,0-.12.29Z" transform="translate(0 -0.42)"/><path class="cls-4" d="M113,156l.18-.06.07-.18A3.33,3.33,0,0,0,114,155a.32.32,0,0,1,.1-.11.66.66,0,0,0,.17-.19,1.33,1.33,0,0,1,1-.5c.46,0,.7.33.73,1l.07.21a4.81,4.81,0,0,1,.26.78,3.42,3.42,0,0,1,.17.72,1.57,1.57,0,0,1-.19.74,4.7,4.7,0,0,0-.78,1l-.11.1a3.25,3.25,0,0,1-.25.49c-.15.06-.23.13-.23.2v.25a.22.22,0,0,1,0,.11,2.65,2.65,0,0,0-.14.31l-.09.17a.56.56,0,0,0-.1.22,1,1,0,0,1-.13.31.42.42,0,0,0-.09.22c0,.13.15.2.45.2l.18-.08.16,0,.11-.08a.78.78,0,0,1,.29-.15,1,1,0,0,0,.33-.16,1.45,1.45,0,0,1,.35-.19,1.33,1.33,0,0,0,.38-.27,1.32,1.32,0,0,1,.37-.26,1,1,0,0,0,.33-.26,3.59,3.59,0,0,1,.35-.32,5.74,5.74,0,0,0,.63-.65,1.17,1.17,0,0,1,.38-.29,2.14,2.14,0,0,0,.2-.36c.12-.24.25-.36.41-.36s.24.09.24.27a.44.44,0,0,1-.12.29v.08l0,.22a.29.29,0,0,1,0,.12.29.29,0,0,1-.09.16,1,1,0,0,0-.12.28.28.28,0,0,1-.22.23c0,.2-.1.31-.17.34a.94.94,0,0,0-.31.27,5.65,5.65,0,0,1-.55.55,3.72,3.72,0,0,0-.49.48c-.09.12-.15.17-.18.17a.14.14,0,0,1-.09-.05s-.08-.06-.1-.06-.07.07-.09.2l0,.13a.76.76,0,0,1-.17.11l-.07,0h0c-.1,0-.14,0-.14.13l.07.13v0a.17.17,0,0,1-.19.19,2.49,2.49,0,0,0-.74.51l-.33.08-.28.18a.46.46,0,0,0-.17-.1l-.18.07-.34,0-.42-.28a1.09,1.09,0,0,1-.49-.54,3.19,3.19,0,0,0-.21-.56,1.13,1.13,0,0,1-.12-.39,3.41,3.41,0,0,1,.09-.93,2.39,2.39,0,0,0,.11-.42.7.7,0,0,1,.14-.29,1.36,1.36,0,0,0,.17-.51,6.69,6.69,0,0,1,.47-1,1.27,1.27,0,0,0,.19-.44l.15-.24a.66.66,0,0,0,.07-.21c0-.13.07-.2.12-.22a.81.81,0,0,0,.09-.24c0-.27-.1-.4-.3-.4,0,0-.08.05-.13.15a.69.69,0,0,1-.32.27,1.5,1.5,0,0,0-.3.21.86.86,0,0,1-.25.17.92.92,0,0,0-.33.32l-.19.11c-.07.17-.12.27-.17.29l-.42.13a.66.66,0,0,0-.12.17.29.29,0,0,1-.26.15,2.34,2.34,0,0,0-.28.38.94.94,0,0,0-.24.11l-.23.07a1,1,0,0,0-.21.26.43.43,0,0,1-.41.17c-.11,0-.17-.11-.17-.32a1.43,1.43,0,0,1,.4-1.07,1.51,1.51,0,0,1,.58-.42.24.24,0,0,0,.23-.17.41.41,0,0,1,.23-.22,1.25,1.25,0,0,0,.41-.4,1.23,1.23,0,0,1,.52-.41Z" transform="translate(0 -0.42)"/><path class="cls-4" d="M128,159.1l.19-.19a.2.2,0,0,0,.21-.18.4.4,0,0,1,.24-.29,1.06,1.06,0,0,0,.4-.45c.12-.22.25-.33.38-.33s.1,0,.16.13a.5.5,0,0,1,.09.22,2.2,2.2,0,0,1-.23.93l0,.38-.09.18a.53.53,0,0,0-.22.23,1.11,1.11,0,0,1-.27.3l-.12.19a.57.57,0,0,0-.34.32.32.32,0,0,1-.24.24.63.63,0,0,0-.34.28l-.28.12,0,.14a.89.89,0,0,1-.36.22,1.54,1.54,0,0,0-.37.15.46.46,0,0,1-.17.08.8.8,0,0,1-.4-.11,1.12,1.12,0,0,0-.38-.12.29.29,0,0,1-.08-.18.71.71,0,0,0-.12-.26.74.74,0,0,1-.1-.43l0-.26a.31.31,0,0,0,0-.13.27.27,0,0,1-.06-.14.19.19,0,0,1,0-.08.11.11,0,0,0,0-.08.39.39,0,0,0,0-.15.93.93,0,0,1,0-.14l.07-.67c0-.05,0-.08,0-.08s-.09.05-.17.14a.35.35,0,0,1-.28.13.72.72,0,0,0-.15.35,1,1,0,0,1-.23.24l0,.08c0,.07-.07.12-.17.16a.39.39,0,0,0-.21.16l-.11.13-.22,0a1,1,0,0,0-.13.23,1.07,1.07,0,0,1-.26.35l-.88.85-.4.27-.07.08a2.79,2.79,0,0,1-1.31.73,1.64,1.64,0,0,1-.72-.21c-.28-.13-.43-.3-.45-.49l-.12-.56a1.11,1.11,0,0,1-.1-.53.59.59,0,0,1,0-.22v-.08l0-.45c0-.11.07-.16.22-.16l0-.37a2.18,2.18,0,0,1,.2-.43,1.75,1.75,0,0,1,.28-.43l.11-.18a.48.48,0,0,1,.16-.35,1.8,1.8,0,0,0,.28-.37,1.62,1.62,0,0,1,.39-.43l.35-.41a3.46,3.46,0,0,1,.88-.76,1.44,1.44,0,0,0,.28-.27,1.3,1.3,0,0,1,.48-.37,2.58,2.58,0,0,0,.54-.29.81.81,0,0,1,.41-.18h.09a4.27,4.27,0,0,0,.61-.34h.07a.8.8,0,0,1,.22.11h0l.19-.11a.2.2,0,0,1,.11,0c.48,0,.74.4.79,1.18,0,.16,0,.24.11.24s.19-.16.33-.49a.88.88,0,0,1,.91-.5c.33,0,.5.25.5.75a2.61,2.61,0,0,1-.67,1.68.84.84,0,0,0-.07.24l-.16.56v0a.58.58,0,0,1-.1.23.4.4,0,0,0-.1.25l0,.34,0,.38c0,.17,0,.29.08.34a.9.9,0,0,0,.53-.36.8.8,0,0,1,.24-.28l.11-.05A1.54,1.54,0,0,1,128,159.1Zm-3.83,0a.63.63,0,0,1,.29-.45.67.67,0,0,0,.28-.32,8.91,8.91,0,0,0,.63-.69,1.77,1.77,0,0,0,.41-.6,0,0,0,0,0,0,0h0l-.09.07-.21,0-.22,0-.16-.09-.15,0-.23-.05a.55.55,0,0,0-.32.09,2,2,0,0,1-.51.19,1.79,1.79,0,0,0-.67.38.88.88,0,0,1-.44.27,2.12,2.12,0,0,1-.54.58.61.61,0,0,0-.36.48q-.3.28-.3.33l-.08.23a.79.79,0,0,1-.23.16.3.3,0,0,0-.16.28.86.86,0,0,1-.16.41.56.56,0,0,0-.13.3c0,.44.07.67.22.67a1.14,1.14,0,0,0,.38-.15,1.08,1.08,0,0,0,.34-.2.54.54,0,0,1,.19-.1l.22-.14a.17.17,0,0,1,.1-.07.24.24,0,0,0,.12-.09.6.6,0,0,1,.2-.16.59.59,0,0,0,.23-.24l.64-.42.24-.22a.89.89,0,0,0,.31-.23A.67.67,0,0,1,124.19,159.1Z" transform="translate(0 -0.42)"/><path class="cls-4" d="M130.36,158.68v-.14a1.92,1.92,0,0,1,.23-.58,1.25,1.25,0,0,1,.53-.59,0,0,0,0,0,0,0l0-.21s.11-.16.23-.36.24-.29.36-.26a1.11,1.11,0,0,1,.32-.36,1.64,1.64,0,0,0,.36-.38l.43-.31a1.28,1.28,0,0,1,.65-.35h.18a.4.4,0,0,1,.37-.28.37.37,0,0,1,.28.08s0,0,0,0l.14-.11a.47.47,0,0,1,.31-.11,5.45,5.45,0,0,1,.52.22.36.36,0,0,1,.26-.16.29.29,0,0,1,.16.08l.24.14q.12.06.24.51a5.11,5.11,0,0,1,.11.5.82.82,0,0,1-.3.51.91.91,0,0,1-.57.29c-.06,0-.14-.06-.23-.19a2.54,2.54,0,0,1-.59-.2,1.34,1.34,0,0,0-.49.2h0l-.1-.11-.09,0h0l-.09.19a1,1,0,0,1-.31.2.57.57,0,0,0-.22.15.79.79,0,0,1-.27.21.7.7,0,0,0-.28.31,1.46,1.46,0,0,1-.33.17h-.07a7,7,0,0,1-.43.73l-.3.58-.25.26a.36.36,0,0,0-.15.25s0,.06,0,.13v.14a.34.34,0,0,1-.11.2c-.07.08-.11.13-.11.17l0,.3-.09.48c0,.28.18.42.52.42h.18l.49-.09.4-.09.19,0,.18-.15H133l.1,0c0-.19.25-.35.66-.47a.77.77,0,0,1,.46-.36,1.8,1.8,0,0,0,.67-.5h.17a1,1,0,0,0,.21-.16,1.72,1.72,0,0,1,.37-.25.66.66,0,0,0,.24-.17.5.5,0,0,1,.17-.12,1,1,0,0,1,.5-.48l0-.05c.13-.13.2-.19.23-.19l.14,0c.08,0,.13-.05.15-.17s.14-.26.36-.46.37-.29.44-.29.21.09.21.27a.2.2,0,0,1-.19.23c.08.24.13.37.13.4a.55.55,0,0,1-.39.58.1.1,0,0,0,0,.09l0,.24v0l-.05.06-.17,0-.05.08a3.22,3.22,0,0,0-.59.56l-.23.29h0c-.08-.09-.14-.14-.19-.14s-.07.07-.11.19a2.08,2.08,0,0,1-.57.54,1.37,1.37,0,0,0-.24.21l-.23.18H135a.35.35,0,0,0-.07.12.69.69,0,0,1-.2.22,1.47,1.47,0,0,0-.25.27.44.44,0,0,1-.21.17l-.21-.05a.38.38,0,0,1-.38.21,2.79,2.79,0,0,0-.2.22q-.14.15-.18.15a.67.67,0,0,1-.24-.16h0c-.08,0-.12.07-.12.2a.2.2,0,0,1-.21.22.8.8,0,0,0-.4.14h0a.49.49,0,0,1-.38-.12l-.21-.17-.38.14a.38.38,0,0,1-.27-.14l-.49-.3a1.43,1.43,0,0,1-.17-.37l-.06-.11c-.25,0-.42-.35-.5-.9l-.09-.32a.19.19,0,0,1,0-.13,1.24,1.24,0,0,1,.1-.41,7,7,0,0,0,.18-.75A.74.74,0,0,1,130.36,158.68Z" transform="translate(0 -0.42)"/><path class="cls-4" d="M138.9,157.07l.24-.23a.31.31,0,0,0,.3-.34.74.74,0,0,1,.38-.55l.14-.23a3,3,0,0,1,.95-.53.89.89,0,0,0,.26-.25s0,0,.05,0l.18.06a1,1,0,0,0,.39-.1,1.29,1.29,0,0,1,.45-.09l.49,0a.68.68,0,0,1,.19.08.63.63,0,0,0,.35.08.63.63,0,0,1,.47.28.85.85,0,0,1,.21.5,1.82,1.82,0,0,1-1,1.35,1.66,1.66,0,0,1-.29.3.75.75,0,0,0-.22.19c-.07.09-.13.13-.18.13a.08.08,0,0,1-.07,0,.06.06,0,0,0-.06,0c-.13,0-.26.18-.41.53l-.21,0a.74.74,0,0,0-.25.33.24.24,0,0,1-.24.18c-.28.34-.48.5-.58.5l-.16,0a.52.52,0,0,0-.09.29c0,.11-.06.17-.18.19l-.15.16-.12,0-.23.29a.66.66,0,0,0-.36.14c0,.11,0,.25-.06.41a2,2,0,0,0,0,.28c0,.27.2.4.61.4l.56-.1a.66.66,0,0,0,.4-.13.72.72,0,0,1,.41-.14.76.76,0,0,0,.21-.05l.12.05a.8.8,0,0,1,.3-.37.63.63,0,0,1,.34-.16l.12-.08a.34.34,0,0,1,.14-.22l.09-.1a.26.26,0,0,1,.17-.11h.16l0,0a.59.59,0,0,1,.39-.42.44.44,0,0,0,.31-.2.29.29,0,0,1,.22-.16.39.39,0,0,0,.27-.19,2.44,2.44,0,0,1,.27-.29l.23-.2a.16.16,0,0,1,.11-.07c.05,0,.07,0,.07.12s0,.12,0,.12.05,0,.05-.05a.93.93,0,0,0,0-.14v-.09a.27.27,0,0,1,.18-.28l.52-.39c0-.19.06-.31.13-.34a.36.36,0,0,0,.17-.11.18.18,0,0,1,.13-.06q.15,0,.15.21l-.06.35.06.37a.46.46,0,0,1-.11.23,1.1,1.1,0,0,0-.17.43c0,.2-.09.31-.15.32h-.07a1,1,0,0,1-.33.31.39.39,0,0,0-.19.17l-.39.53-.2.25c-.05.07-.09.11-.12.11l-.1-.11s0,0,0,0-.13.06-.15.17a.7.7,0,0,1-.12.28,1.29,1.29,0,0,0-.45.36l-.07,0h-.2q-.15,0-.21.27a.37.37,0,0,1-.33.31.71.71,0,0,0-.39.16.21.21,0,0,1-.1.06,1.58,1.58,0,0,0-.33.22l-1,.4a.31.31,0,0,1-.15.07l-.32.06s-.09,0-.14-.11-.07-.11-.09-.11l-.21.08a1.17,1.17,0,0,1-.44.08.48.48,0,0,1-.25-.09,1.8,1.8,0,0,0-.22-.14c-.22,0-.38-.2-.47-.61l-.14,0a4.1,4.1,0,0,1-.31-1,.4.4,0,0,0-.22-.15q-.15,0-.15-.27a1.12,1.12,0,0,1,.22-.82c.15-.14.24-.25.25-.33l.16-.7a.86.86,0,0,0,.12-.28l.26-.57Zm2.44-.82-.14.08-.27.24a2.49,2.49,0,0,1-.44.34,1.54,1.54,0,0,0-.44.68,3,3,0,0,0-.22.63c0,.05,0,.08.07.08l.39-.21a1.7,1.7,0,0,0,.41-.31,5.25,5.25,0,0,1,.55-.46l.09-.11a1,1,0,0,1,.21-.2,1.56,1.56,0,0,0,.29-.28l.11-.06a1,1,0,0,1,.4-.45c.13-.05.2-.1.2-.16s-.07-.16-.22-.16a.53.53,0,0,0-.27.13h-.27a.77.77,0,0,0-.25.17Z" transform="translate(0 -0.42)"/><line class="cls-6" y1="5" x2="325.7" y2="5"/><line class="cls-6" y1="182.16" x2="325.7" y2="182.16"/></svg>