<svg id="Layer_1" data-name="Layer 1" xmlns="http://www.w3.org/2000/svg" viewBox="0 0 50 50"><defs><style>.cls-1{fill:#982a1f;}.cls-2{fill:#1a2935;}.cls-3,.cls-4,.cls-5{fill:#fff;}.cls-3{opacity:0.9;}.cls-4{opacity:0.51;}.cls-6{fill:#999965;}</style></defs><circle class="cls-1" cx="25" cy="25" r="25"/><path class="cls-2" d="M39.37,45.34" transform="translate(-0.4 -0.5)"/><path class="cls-2" d="M31.72,45.59" transform="translate(-0.4 -0.5)"/><path class="cls-3" d="M13,16.08a1.77,1.77,0,0,1,.57.92,3.56,3.56,0,0,1-.46,2.54c-.07.15-.18.36-.41.76-.46.82-.83,1.4-.91,1.54a35.8,35.8,0,0,0-2,3.76,19.64,19.64,0,0,0-1.5,5.29A14.59,14.59,0,0,0,8,34.11a10.64,10.64,0,0,0,.51,3,8.29,8.29,0,0,0,3.2,4.3,8.15,8.15,0,0,0,4.91,1.34,11.25,11.25,0,0,1-3.87-4.33A12.08,12.08,0,0,1,11.58,34a16.46,16.46,0,0,1,.64-6.66,21.9,21.9,0,0,1,1-2.65,36.12,36.12,0,0,1,2.1-4.32,7.08,7.08,0,0,0,.78-1.68,5.83,5.83,0,0,0,.26-1.57h0a8,8,0,0,0-.3-2.57,4.58,4.58,0,0,0-1.68-2.12A5.12,5.12,0,0,0,13.5,12a2.91,2.91,0,0,0-1-.19,2.69,2.69,0,0,0-1,.21,2.91,2.91,0,0,0-.74.42,3.7,3.7,0,0,0-.79.82l-.77,1c-.58.28-1.05.49-1.38.64l-.8.35c-.68.27-.86.28-.9.42s.52.74,1.13.92A3.18,3.18,0,0,0,9,16.59a7.66,7.66,0,0,0,2-.7A2.24,2.24,0,0,1,13,16.08Z" transform="translate(-0.4 -0.5)"/><path class="cls-2" d="M6.89,39.92" transform="translate(-0.4 -0.5)"/><path class="cls-4" d="M12.12,33.36a17.13,17.13,0,0,1,4.62-7.93,17.5,17.5,0,0,1,8.38-5,35.64,35.64,0,0,1,6.39-.8c.91,0,1.35,0,3.67-.06s3.66-.07,4.36-.14a15.59,15.59,0,0,0,5.84-1.77A29.9,29.9,0,0,1,39.22,29,27.23,27.23,0,0,1,27,37.5c-4.41,1.42-6.67,2-9.53,1.91,0,0-5.77-.26-6.24,1.25h0A35.68,35.68,0,0,1,12.12,33.36Z" transform="translate(-0.4 -0.5)"/><path class="cls-4" d="M14.51,35.1a19.34,19.34,0,0,1,6.82-6,19,19,0,0,1,9-2.43,39.58,39.58,0,0,1,5.17.69c.31.06.61.14.61.14.74.17,1.33.37,4.19,1.1a20.36,20.36,0,0,0,4.46.89,15,15,0,0,0,4-.39,33.51,33.51,0,0,1-9.35,8.65,28.37,28.37,0,0,1-13.56,4.68c-3.76.18-6.05.29-8.88-.6-1.77-.56-4.74-1.82-5.61-.79C11.2,41.22,10.48,41.06,14.51,35.1Z" transform="translate(-0.4 -0.5)"/><path class="cls-4" d="M15.28,36.76a17.75,17.75,0,0,1,6.93-3.7,16.74,16.74,0,0,1,7.92-.48A31.58,31.58,0,0,1,34.21,34l.48.21c.56.27,1,.52,3.18,1.58a16.88,16.88,0,0,0,3.45,1.45,13,13,0,0,0,3.36.33A31.43,31.43,0,0,1,35.07,43,25.52,25.52,0,0,1,22.91,44.5c-3.13-.47-5-.76-7.15-1.93-1.32-.74-3.47-2.24-4.42-1.56C11.18,41.13,10.63,40.89,15.28,36.76Z" transform="translate(-0.4 -0.5)"/><path class="cls-5" d="M37.07,28.37" transform="translate(-0.4 -0.5)"/><path class="cls-4" d="M11.63,38.72C12.56,31.78,17.87,27,17.87,27a17.64,17.64,0,0,1,8.58-4.25,43.43,43.43,0,0,1,5.62-.32h.69c.83,0,1.51.12,4.74.29a23.5,23.5,0,0,0,5,0,15.44,15.44,0,0,0,4-1.18,31.52,31.52,0,0,1-6.89,10.6,32.44,32.44,0,0,1-12.4,7.64s-5.53,2.14-9.66.92h0s-4.15-1.3-5.83,0c0,0-.4.31-.46.24s0-.15,0-.18A9.84,9.84,0,0,0,11.63,38.72Z" transform="translate(-0.4 -0.5)"/><path class="cls-4" d="M10,34.59a13.11,13.11,0,0,1,2.11-7.73,15.17,15.17,0,0,1,6.54-6,36.54,36.54,0,0,1,5.85-2c.86-.22,1.28-.29,3.48-.82s3.46-.84,4.11-1a15.19,15.19,0,0,0,5-2.74,22.92,22.92,0,0,1-2.61,10.94A22.84,22.84,0,0,1,25.36,35c-3.79,2.15-5.76,3.15-8.52,3.64,0,0-5.57,1-5.58,2.39h0A28.84,28.84,0,0,1,10,34.59Z" transform="translate(-0.4 -0.5)"/><path class="cls-6" d="M9.47,7.93a.45.45,0,0,1,.39.5.38.38,0,0,1-.07.21c.55.53,1.38,1.21,2,1.1s1.16-2.11,1.46-3.4a.47.47,0,0,1,.18-.9.47.47,0,0,1,0,.92c0,1.41.11,3.65,1.06,3.67a4.33,4.33,0,0,0,2.37-.84.41.41,0,0,1-.08-.29.43.43,0,1,1,.39.49.37.37,0,0,1-.23-.1L15,11.85a5.46,5.46,0,0,0-2-.56,5,5,0,0,0-2,.26L9.61,8.81a.41.41,0,0,1-.22,0,.46.46,0,0,1,.08-.92Z" transform="translate(-0.4 -0.5)"/><path class="cls-6" d="M20.87,29.54l-2.93,2.4c-1.75,1.43-3,2.14-3.75,2.14a.11.11,0,0,1-.12-.12c0-.12.09-.2.28-.24a5.44,5.44,0,0,0,.92-.33,19.85,19.85,0,0,0,2.87-2.07c.68-.53,1.67-1.37,3-2.51.5-.49.84-.73,1-.73a.59.59,0,0,1,.39.19.57.57,0,0,1,.2.38,10.38,10.38,0,0,1-1.53,2.19,8.21,8.21,0,0,0-1.53,2.32q0,.3.24.3c.37,0,1.22-.8,2.53-2.39s2.06-2.38,2.25-2.38a.32.32,0,0,1,.36.36,7.92,7.92,0,0,1-1.12,1.85,5.07,5.07,0,0,0-1.13,2.32c0,.24.1.36.29.36.35,0,1.1-.66,2.26-2a.71.71,0,0,1-.23-.58A3.25,3.25,0,0,1,26,29.16c.6-.75,1.15-1.13,1.63-1.13q.24,0,.24.3c0,.62-.66,1.72-2,3.3S23.52,34,22.9,34s-.86-.29-.86-.89a3.76,3.76,0,0,1,.47-1.57c-.68.77-1.12,1.25-1.33,1.46a2.76,2.76,0,0,1-1.59,1c-.49,0-.74-.26-.74-.8a4,4,0,0,1,.77-2Zm4.82,1.65c1.1-1.26,1.65-2.08,1.65-2.47,0-.09,0-.14-.11-.14-.26,0-.6.31-1.05.93a2.9,2.9,0,0,0-.65,1.39A.29.29,0,0,0,25.69,31.19Z" transform="translate(-0.4 -0.5)"/><path class="cls-6" d="M31.08,32.32q2.19-1.87,2.19-3.09c0-.35-.14-.53-.4-.53s-.95.47-2,1.4c-1.65,1.4-2.69,2.27-3.12,2.59a5.68,5.68,0,0,1-2.85,1.39.11.11,0,0,1-.12-.12.22.22,0,0,1,.2-.24,7.8,7.8,0,0,0,2.66-1.45L29,31.21l2-1.68a8.79,8.79,0,0,1,1.91-1.38,2.7,2.7,0,0,1,.65-.13.9.9,0,0,1,1,1q0,1.52-3.11,3.57a.89.89,0,0,1,.43.81c0,.76-.86,2-2.58,3.82s-3.09,2.68-4.11,2.68c-.57,0-.85-.25-.85-.75,0-.84.66-1.86,2-3.06a9.59,9.59,0,0,1,4.51-2.35,1,1,0,0,0,.22-.61.27.27,0,0,0-.1-.22,4.79,4.79,0,0,1-1.77.53c-.39,0-.59-.09-.59-.28s.28-.44.84-.63a3.47,3.47,0,0,1,1.17-.26A2.16,2.16,0,0,1,31.08,32.32Zm-.46,1.83a8.79,8.79,0,0,0-4.13,2.21c-1.21,1.14-1.82,2.07-1.82,2.79a.31.31,0,0,0,.34.35c.65,0,1.67-.73,3.06-2.2A21.75,21.75,0,0,0,30.62,34.15Z" transform="translate(-0.4 -0.5)"/></svg>